<?xml version="1.0" encoding="utf-8"?>
<!-- Generator: Adobe Illustrator 22.0.0, SVG Export Plug-In . SVG Version: 6.00 Build 0)  -->
<svg version="1.1" id="Capa_1" xmlns="http://www.w3.org/2000/svg" xmlns:xlink="http://www.w3.org/1999/xlink" x="0px" y="0px"
	 viewBox="0 0 401.3 132.3" style="enable-background:new 0 0 401.3 132.3;" xml:space="preserve">
<style type="text/css">
	.st0{fill:#1D1D1B;}
	.st1{clip-path:url(#SVGID_2_);}
	.st2{clip-path:url(#SVGID_4_);}
	.st3{clip-path:url(#SVGID_6_);}
	.st4{clip-path:url(#SVGID_8_);}
	.st5{clip-path:url(#SVGID_10_);}
	.st6{clip-path:url(#SVGID_12_);}
	.st7{fill:#333333;}
	.st8{fill:#AD1917;}
	.st9{fill-rule:evenodd;clip-rule:evenodd;fill:#AD1917;}
	.st10{fill:#AF191C;}
	.st11{fill:#010000;}
	.st12{fill-rule:evenodd;clip-rule:evenodd;fill:none;stroke:#1D1D1B;stroke-width:1.1111;stroke-miterlimit:10;}
	.st13{fill:none;stroke:#1D1D1B;stroke-width:1.1111;stroke-miterlimit:10;}
	.st14{fill:none;stroke:#1D1D1B;stroke-width:0.6093;stroke-miterlimit:10;}
	.st15{fill:#AE191B;}
	.st16{clip-path:url(#SVGID_14_);}
	.st17{clip-path:url(#SVGID_16_);}
	.st18{clip-path:url(#SVGID_18_);}
	.st19{fill:#FFFFFF;}
</style>
<g>
	<g>
		<g>
			<path class="st7" d="M35.8,110h-3l8.4-19.3h2.5l8.3,19.3h-3l-2-4.7h-9.1L35.8,110z M38.6,102.9h7.2l-3.6-9L38.6,102.9z"/>
			<path class="st7" d="M94.7,107.6h8.6v2.4H92.1V90.7h2.7V107.6z"/>
			<path class="st7" d="M144.9,110h-2.7V90.7h2.7V110z"/>
			<path class="st7" d="M187.4,110h-3l8.4-19.3h2.5l8.3,19.3h-3l-2-4.7h-9.1L187.4,110z M190.3,102.9h7.2l-3.6-9L190.3,102.9z"/>
			<path class="st7" d="M256.5,106.1L256.5,106.1l0.1-15.4h2.7V110h-3.4l-10.2-15.7h-0.1V110h-2.7V90.7h3.5L256.5,106.1z"/>
			<path class="st7" d="M313.6,93.1l-10.9,14.5h11v2.4h-14.3v-2.4l10.9-14.5h-10.6v-2.4h13.9V93.1z"/>
			<path class="st7" d="M354.8,110h-3l8.4-19.3h2.5l8.3,19.3h-3l-2-4.7h-9.1L354.8,110z M357.7,102.9h7.2l-3.6-9L357.7,102.9z"/>
		</g>
	</g>
	<g>
		<g>
			<path class="st8" d="M79.8,77.8l0.3-36.5h-0.2L66.5,77.8h-8.7l-13-36.5h-0.2l0.3,36.5H33.1V26.3h17.7l11.7,33h0.3l11.2-33h18
				v51.5H79.8z"/>
			<path class="st8" d="M101.2,77.8V26.3h12.5v51.5H101.2z"/>
			<path class="st8" d="M150.1,39.7c-1.1-1.4-2.5-2.4-4.2-3.2c-1.7-0.8-3.4-1.2-5-1.2c-0.8,0-1.7,0.1-2.5,0.2
				c-0.9,0.1-1.6,0.4-2.3,0.8c-0.7,0.4-1.2,0.9-1.7,1.6c-0.5,0.7-0.7,1.5-0.7,2.5c0,0.9,0.2,1.6,0.5,2.2c0.4,0.6,0.9,1.1,1.6,1.5
				c0.7,0.4,1.5,0.8,2.5,1.2c1,0.4,2.1,0.7,3.3,1.1c1.7,0.6,3.6,1.2,5.5,1.9c1.9,0.7,3.6,1.6,5.2,2.8c1.5,1.2,2.8,2.6,3.9,4.3
				c1,1.7,1.5,3.9,1.5,6.4c0,3-0.5,5.5-1.6,7.7c-1.1,2.2-2.6,3.9-4.4,5.3c-1.8,1.4-4,2.5-6.3,3.1c-2.4,0.7-4.8,1-7.4,1
				c-3.7,0-7.3-0.6-10.7-1.9c-3.4-1.3-6.3-3.1-8.6-5.5l8.2-8.3c1.3,1.6,2.9,2.9,5,3.9c2.1,1,4.1,1.6,6.2,1.6c0.9,0,1.8-0.1,2.7-0.3
				c0.9-0.2,1.6-0.5,2.3-0.9s1.2-1,1.6-1.7c0.4-0.7,0.6-1.6,0.6-2.6c0-1-0.2-1.8-0.7-2.5c-0.5-0.7-1.2-1.3-2.1-1.9
				c-0.9-0.6-2-1.1-3.3-1.5c-1.3-0.5-2.9-1-4.6-1.5c-1.7-0.5-3.3-1.2-4.8-1.9c-1.6-0.7-3-1.7-4.2-2.8c-1.2-1.1-2.2-2.5-3-4.2
				c-0.8-1.6-1.1-3.6-1.1-5.9c0-2.9,0.6-5.3,1.7-7.4c1.2-2,2.7-3.7,4.6-5c1.9-1.3,4-2.3,6.4-2.9c2.4-0.6,4.8-0.9,7.2-0.9
				c2.9,0,5.9,0.5,8.9,1.6c3,1.1,5.7,2.6,8,4.7L150.1,39.7z"/>
			<path class="st8" d="M164.4,77.8V26.3h12.5v51.5H164.4z"/>
		</g>
	</g>
	<g>
		<g>
			<path class="st8" d="M269.7,77.8L249,44.1h-0.2l0.3,33.7H237V26.3h14.2l20.7,33.6h0.2l-0.3-33.6h12.1v51.5H269.7z"/>
			<path class="st8" d="M293,77.8V26.3h34.7v10.5H305v9.8h21.4v10H305v10.7h24v10.6H293z"/>
			<path class="st8" d="M363,39.7c-1.1-1.4-2.5-2.4-4.2-3.2c-1.7-0.8-3.4-1.2-5-1.2c-0.8,0-1.7,0.1-2.5,0.2
				c-0.9,0.1-1.6,0.4-2.3,0.8c-0.7,0.4-1.2,0.9-1.7,1.6c-0.5,0.7-0.7,1.5-0.7,2.5c0,0.9,0.2,1.6,0.5,2.2c0.4,0.6,0.9,1.1,1.6,1.5
				c0.7,0.4,1.5,0.8,2.5,1.2c1,0.4,2.1,0.7,3.3,1.1c1.7,0.6,3.6,1.2,5.5,1.9c1.9,0.7,3.6,1.6,5.2,2.8c1.5,1.2,2.8,2.6,3.9,4.3
				c1,1.7,1.5,3.9,1.5,6.4c0,3-0.5,5.5-1.6,7.7c-1.1,2.2-2.6,3.9-4.4,5.3c-1.8,1.4-4,2.5-6.3,3.1c-2.4,0.7-4.8,1-7.4,1
				c-3.7,0-7.3-0.6-10.7-1.9c-3.4-1.3-6.3-3.1-8.6-5.5l8.2-8.3c1.3,1.6,2.9,2.9,5,3.9c2.1,1,4.1,1.6,6.2,1.6c0.9,0,1.8-0.1,2.7-0.3
				c0.9-0.2,1.6-0.5,2.3-0.9s1.2-1,1.6-1.7c0.4-0.7,0.6-1.6,0.6-2.6c0-1-0.2-1.8-0.7-2.5c-0.5-0.7-1.2-1.3-2.1-1.9
				c-0.9-0.6-2-1.1-3.3-1.5c-1.3-0.5-2.9-1-4.6-1.5c-1.7-0.5-3.3-1.2-4.8-1.9c-1.6-0.7-3-1.7-4.2-2.8s-2.2-2.5-3-4.2
				c-0.8-1.6-1.1-3.6-1.1-5.9c0-2.9,0.6-5.3,1.7-7.4c1.2-2,2.7-3.7,4.6-5c1.9-1.3,4-2.3,6.4-2.9c2.4-0.6,4.8-0.9,7.2-0.9
				c2.9,0,5.9,0.5,8.9,1.6c3,1.1,5.7,2.6,8,4.7L363,39.7z"/>
		</g>
	</g>
	<g>
		<g>
			<path class="st9" d="M212.1,82.8c-3.3-1.9-6.1-4.7-8.3-8c5,1,10.6,1,15.8,1.3c-6.5-0.7-12-1.5-16.5-2.5
				c-4.6-7.8-6.1-18.2-3.6-27.9c5.9,1.4,13.5,1.3,19.7,1.8c-6.4-1-13.6-1.3-19.4-2.9c1.4-4.8,3.7-9.4,7.2-13.4
				c3,0.5,6.4,0.7,9.7,0.9c-2.5-0.4-5.9-0.8-9.2-1.5c3.4-3.7,7.7-6.9,13-9.1c0.1,0,0.1,0,0.1,0s0,0-0.1,0c0.1,0,0.1,0,0.2-0.1
				c-0.1,0-0.1,0.1-0.2,0.1c-0.2,0.1-0.5,0.2-1,0.4c0.4-0.2,0.7-0.3,0.9-0.4c-5.6,2.2-10.1,5.2-13.6,8.9c-1.8-0.4-3.5-0.9-4.9-1.4
				c4.5-3.4,10.7-6.1,18.8-7.5c-8.5,0.3-15.2,2.9-20.3,6.8c-0.7-0.4-1.3-0.9-1.7-1.4c6-4.4,13.5-6.9,21.1-6.7
				C200,16,176,36.9,186,63.5c10.9,29,45.3,21.3,51.1,14.1C229.7,82.6,220.6,84.5,212.1,82.8z M211.9,82.7c-1.3-0.3-2.5-0.6-3.7-1
				c-4.3-1.9-8-5.1-10.9-9.1c1.6,0.8,3.4,1.4,5.2,1.8C204.9,77.9,208.1,80.8,211.9,82.7z M201.7,73.3c-2-0.5-3.7-1.1-5.3-1.8
				c-5.3-7.9-7.4-18.7-3.9-28.9c1.4,1.3,3.4,2.1,5.6,2.8C195.3,55,196.7,65.4,201.7,73.3z M206.2,31c-3.6,3.9-6.2,8.4-7.7,13.2
				c-2.1-0.7-4-1.7-5.5-2.9c1.5-4.5,4.2-8.5,8.3-11.8C202.6,30.2,204.3,30.6,206.2,31z M198.5,26.9c0.3,0.6,0.8,1.2,1.4,1.6
				c-3.8,3.1-6.5,6.9-8.4,11.2c-0.7-0.8-1.2-1.8-1.6-2.9C192,33,195,29.6,198.5,26.9z M189.8,37c0.1,1.5,0.5,2.8,1.2,3.9
				c-0.1,0.3-0.2,0.6-0.4,1c-3,8.1-2.8,17.2,0.2,24.8c-0.7-1.4-1.4-2.8-2-4.3C185.2,52.7,186.2,43.9,189.8,37z"/>
		</g>
	</g>
</g>
</svg>
